<svg xmlns="http://www.w3.org/2000/svg" width="1440" height="24" viewBox="0 0 1440 24" preserveAspectRatio="none">
<rect width="1440" height="24" fill="#464c68"/>
<path d="M-20 24 L-20 6 C1 -6 22 22 50 9 L50 24 Z" fill="#f0cc71"/>
<circle cx="44" cy="11.4" r="0.9" fill="#1f2233" opacity="0.5"/>
<circle cx="19" cy="5.8" r="0.9" fill="#1f2233" opacity="0.5"/>
<circle cx="30" cy="12.8" r="0.9" fill="#1f2233" opacity="0.5"/>
<circle cx="18" cy="9.9" r="0.9" fill="#1f2233" opacity="0.5"/>
<circle cx="40" cy="6.6" r="0.9" fill="#1f2233" opacity="0.5"/>
<circle cx="-9" cy="20.5" r="0.9" fill="#1f2233" opacity="0.5"/>
<rect x="28" y="0" width="41" height="24" fill="#353a52"/>
<rect x="30" y="17" width="9" height="1.4" fill="#1f2233" opacity="0.55"/>
<rect x="39" y="14" width="10" height="1.4" fill="#1f2233" opacity="0.55"/>
<rect x="44" y="17" width="7" height="1.4" fill="#1f2233" opacity="0.55"/>
<rect x="58" y="13" width="10" height="1.4" fill="#1f2233" opacity="0.55"/>
<rect x="34" y="10" width="4" height="1.4" fill="#1f2233" opacity="0.55"/>
<rect x="48" y="8" width="8" height="1.4" fill="#1f2233" opacity="0.55"/>
<rect x="60" y="18" width="7" height="1.4" fill="#1f2233" opacity="0.55"/>
<rect x="62" y="13" width="7" height="1.4" fill="#1f2233" opacity="0.55"/>
<path d="M53 0 Q94 38 136 0 Z" fill="#353a52"/>
<rect x="135" y="15" width="5" height="1.4" fill="#1f2233" opacity="0.55"/>
<rect x="124" y="20" width="9" height="1.4" fill="#1f2233" opacity="0.55"/>
<rect x="100" y="16" width="5" height="1.4" fill="#1f2233" opacity="0.55"/>
<rect x="122" y="13" width="6" height="1.4" fill="#1f2233" opacity="0.55"/>
<rect x="58" y="18" width="10" height="1.4" fill="#1f2233" opacity="0.55"/>
<rect x="60" y="17" width="6" height="1.4" fill="#1f2233" opacity="0.55"/>
<circle cx="88" cy="10.3" r="0.9" fill="#1f2233" opacity="0.5"/>
<circle cx="63" cy="14.1" r="0.9" fill="#1f2233" opacity="0.5"/>
<circle cx="116" cy="9.6" r="0.9" fill="#1f2233" opacity="0.5"/>
<circle cx="102" cy="13.0" r="0.9" fill="#1f2233" opacity="0.5"/>
<circle cx="130" cy="7.6" r="0.9" fill="#1f2233" opacity="0.5"/>
<circle cx="73" cy="2.7" r="0.9" fill="#1f2233" opacity="0.5"/>
<circle cx="54" cy="4.2" r="0.9" fill="#1f2233" opacity="0.5"/>
<circle cx="97" cy="21.0" r="0.9" fill="#1f2233" opacity="0.5"/>
<circle cx="134" cy="7.8" r="0.9" fill="#1f2233" opacity="0.5"/>
<circle cx="75" cy="15.8" r="0.9" fill="#1f2233" opacity="0.5"/>
<path d="M127 24 A42 26 0 0 1 210 24 Z" fill="#a9afcc"/>
<rect x="158" y="19" width="6" height="1.4" fill="#1f2233" opacity="0.55"/>
<rect x="199" y="15" width="5" height="1.4" fill="#1f2233" opacity="0.55"/>
<rect x="208" y="18" width="6" height="1.4" fill="#1f2233" opacity="0.55"/>
<rect x="180" y="16" width="10" height="1.4" fill="#1f2233" opacity="0.55"/>
<rect x="163" y="8" width="6" height="1.4" fill="#1f2233" opacity="0.55"/>
<rect x="155" y="17" width="10" height="1.4" fill="#1f2233" opacity="0.55"/>
<rect x="153" y="10" width="8" height="1.4" fill="#1f2233" opacity="0.55"/>
<circle cx="166" cy="15.6" r="0.9" fill="#1f2233" opacity="0.5"/>
<circle cx="156" cy="16.1" r="0.9" fill="#1f2233" opacity="0.5"/>
<circle cx="188" cy="2.4" r="0.9" fill="#1f2233" opacity="0.5"/>
<circle cx="132" cy="15.5" r="0.9" fill="#1f2233" opacity="0.5"/>
<circle cx="207" cy="7.0" r="0.9" fill="#1f2233" opacity="0.5"/>
<circle cx="165" cy="13.9" r="0.9" fill="#1f2233" opacity="0.5"/>
<circle cx="154" cy="9.3" r="0.9" fill="#1f2233" opacity="0.5"/>
<circle cx="153" cy="9.4" r="0.9" fill="#1f2233" opacity="0.5"/>
<circle cx="176" cy="8.0" r="0.9" fill="#1f2233" opacity="0.5"/>
<circle cx="158" cy="17.4" r="0.9" fill="#1f2233" opacity="0.5"/>
<circle cx="129" cy="13.4" r="0.9" fill="#1f2233" opacity="0.5"/>
<path d="M194 24 A40 26 0 0 1 273 24 Z" fill="#f0cc71"/>
<rect x="242" y="0" width="95" height="24" fill="#353a52"/>
<rect x="332" y="15" width="5" height="1.4" fill="#1f2233" opacity="0.55"/>
<rect x="319" y="20" width="4" height="1.4" fill="#1f2233" opacity="0.55"/>
<rect x="312" y="7" width="7" height="1.4" fill="#1f2233" opacity="0.55"/>
<rect x="268" y="17" width="4" height="1.4" fill="#1f2233" opacity="0.55"/>
<rect x="333" y="9" width="9" height="1.4" fill="#1f2233" opacity="0.55"/>
<rect x="297" y="19" width="6" height="1.4" fill="#1f2233" opacity="0.55"/>
<path d="M297 24 L297 7 C333 -6 368 22 416 8 L416 24 Z" fill="#a9afcc"/>
<path d="M388 24 L388 2 C411 -6 434 22 465 7 L465 24 Z" fill="#d7dae9"/>
<rect x="461" y="19" width="10" height="1.4" fill="#1f2233" opacity="0.55"/>
<rect x="421" y="20" width="10" height="1.4" fill="#1f2233" opacity="0.55"/>
<rect x="405" y="16" width="9" height="1.4" fill="#1f2233" opacity="0.55"/>
<rect x="439" y="12" width="6" height="1.4" fill="#1f2233" opacity="0.55"/>
<rect x="414" y="7" width="4" height="1.4" fill="#1f2233" opacity="0.55"/>
<rect x="433" y="8" width="9" height="1.4" fill="#1f2233" opacity="0.55"/>
<rect x="391" y="19" width="8" height="1.4" fill="#1f2233" opacity="0.55"/>
<path d="M454 24 L502 -0 L549 24 Z" fill="#f0cc71"/>
<rect x="482" y="15" width="7" height="1.4" fill="#1f2233" opacity="0.55"/>
<rect x="493" y="20" width="8" height="1.4" fill="#1f2233" opacity="0.55"/>
<rect x="486" y="8" width="9" height="1.4" fill="#1f2233" opacity="0.55"/>
<rect x="499" y="17" width="6" height="1.4" fill="#1f2233" opacity="0.55"/>
<rect x="473" y="13" width="9" height="1.4" fill="#1f2233" opacity="0.55"/>
<rect x="470" y="17" width="10" height="1.4" fill="#1f2233" opacity="0.55"/>
<rect x="531" y="18" width="4" height="1.4" fill="#1f2233" opacity="0.55"/>
<rect x="514" y="19" width="4" height="1.4" fill="#1f2233" opacity="0.55"/>
<path d="M515 24 A54 26 0 0 1 622 24 Z" fill="#f0cc71"/>
<path d="M573 24 L596 -3 L620 24 Z" fill="#e8a77a"/>
<rect x="613" y="5" width="7" height="1.4" fill="#1f2233" opacity="0.55"/>
<rect x="588" y="9" width="6" height="1.4" fill="#1f2233" opacity="0.55"/>
<rect x="603" y="14" width="6" height="1.4" fill="#1f2233" opacity="0.55"/>
<rect x="582" y="9" width="5" height="1.4" fill="#1f2233" opacity="0.55"/>
<path d="M610 24 L654 -3 L698 24 Z" fill="#e8a77a"/>
<path d="M682 0 Q726 38 770 0 Z" fill="#353a52"/>
<rect x="741" y="0" width="103" height="24" fill="#e8a77a"/>
<path d="M814 24 L814 10 C835 -6 857 22 885 3 L885 24 Z" fill="#7d84a6"/>
<path d="M874 0 Q914 38 955 0 Z" fill="#a9afcc"/>
<path d="M921 0 Q985 38 1049 0 Z" fill="#5b6283"/>
<path d="M1015 24 L1059 -1 L1103 24 Z" fill="#353a52"/>
<path d="M1085 24 A50 26 0 0 1 1185 24 Z" fill="#7d84a6"/>
<path d="M1159 24 L1221 -4 L1283 24 Z" fill="#d7dae9"/>
<circle cx="1243" cy="18.7" r="0.9" fill="#1f2233" opacity="0.5"/>
<circle cx="1277" cy="13.6" r="0.9" fill="#1f2233" opacity="0.5"/>
<circle cx="1258" cy="2.7" r="0.9" fill="#1f2233" opacity="0.5"/>
<circle cx="1254" cy="12.2" r="0.9" fill="#1f2233" opacity="0.5"/>
<circle cx="1248" cy="4.1" r="0.9" fill="#1f2233" opacity="0.5"/>
<circle cx="1252" cy="20.7" r="0.9" fill="#1f2233" opacity="0.5"/>
<circle cx="1167" cy="8.5" r="0.9" fill="#1f2233" opacity="0.5"/>
<path d="M1251 0 Q1276 38 1300 0 Z" fill="#7d84a6"/>
<path d="M1289 24 A45 26 0 0 1 1379 24 Z" fill="#a9afcc"/>
<path d="M1351 24 L1351 14 C1366 -6 1381 22 1401 7 L1401 24 Z" fill="#d7dae9"/>
<circle cx="1385" cy="5.1" r="0.9" fill="#1f2233" opacity="0.5"/>
<circle cx="1371" cy="19.8" r="0.9" fill="#1f2233" opacity="0.5"/>
<circle cx="1359" cy="12.0" r="0.9" fill="#1f2233" opacity="0.5"/>
<circle cx="1375" cy="16.0" r="0.9" fill="#1f2233" opacity="0.5"/>
<circle cx="1399" cy="13.7" r="0.9" fill="#1f2233" opacity="0.5"/>
<circle cx="1394" cy="4.7" r="0.9" fill="#1f2233" opacity="0.5"/>
<circle cx="1389" cy="4.9" r="0.9" fill="#1f2233" opacity="0.5"/>
<circle cx="1377" cy="20.7" r="0.9" fill="#1f2233" opacity="0.5"/>
<circle cx="1394" cy="12.8" r="0.9" fill="#1f2233" opacity="0.5"/>
<circle cx="1390" cy="15.4" r="0.9" fill="#1f2233" opacity="0.5"/>
<circle cx="1394" cy="13.9" r="0.9" fill="#1f2233" opacity="0.5"/>
<circle cx="1380" cy="21.7" r="0.9" fill="#1f2233" opacity="0.5"/>
<circle cx="1395" cy="8.1" r="0.9" fill="#1f2233" opacity="0.5"/>
<circle cx="1364" cy="18.1" r="0.9" fill="#1f2233" opacity="0.5"/>
<path d="M1382 24 A56 26 0 0 1 1494 24 Z" fill="#a9afcc"/>
</svg>